HIERARCHY
ROOT Hips
{
	OFFSET 0.000000 0.000000 0.000000
	CHANNELS 6 Xposition Yposition Zposition Zrotation Yrotation Xrotation 
	JOINT LowerBack
	{
		OFFSET 0.000000 0.000000 0.000000
		CHANNELS 3 Zrotation Yrotation Xrotation
		JOINT Spine
		{
			OFFSET 0.028270 2.035590 -0.193380
			CHANNELS 3 Zrotation Yrotation Xrotation
			JOINT Spine1
			{
				OFFSET 0.056720 2.048850 -0.042750
				CHANNELS 3 Zrotation Yrotation Xrotation
				JOINT Neck
				{
					OFFSET 0.000000 0.000000 0.000000
					CHANNELS 3 Zrotation Yrotation Xrotation
					JOINT Neck1
					{
						OFFSET -0.054170 1.746240 0.172020
						CHANNELS 3 Zrotation Yrotation Xrotation
						JOINT Head
						{
							OFFSET 0.104070 1.761360 -0.123970
							CHANNELS 3 Zrotation Yrotation Xrotation
							End Site
							{
								OFFSET 0.000000 0.000000 0.000000
							}
						}
					}
				}
				JOINT LeftShoulder
				{
					OFFSET 0.000000 0.000000 0.000000
					CHANNELS 3 Zrotation Yrotation Xrotation
					JOINT LeftArm
					{
						OFFSET 3.362410 1.200890 -0.311210
						CHANNELS 3 Zrotation Yrotation Xrotation
						JOINT LeftForeArm
						{
							OFFSET 4.983000 -0.000000 -0.000000
							CHANNELS 3 Zrotation Yrotation Xrotation
							JOINT LeftHand
							{
								OFFSET 3.483560 -0.000000 -0.000000
								CHANNELS 3 Zrotation Yrotation Xrotation
								JOINT LeftFingerBase
								{
									OFFSET 0.000000 0.000000 0.000000
									CHANNELS 3 Zrotation Yrotation Xrotation
									JOINT LeftHandIndex1
									{
										OFFSET 0.715260 -0.000000 -0.000000
										CHANNELS 3 Zrotation Yrotation Xrotation
										End Site
										{
											OFFSET 0.000000 0.000000 0.000000
										}
									}
								}
								JOINT LThumb
								{
									OFFSET 0.000000 0.000000 0.000000
									CHANNELS 3 Zrotation Yrotation Xrotation
									End Site
									{
										OFFSET 0.000000 0.000000 0.000000
									}
								}
							}
						}
					}
				}
				JOINT RightShoulder
				{
					OFFSET 0.000000 0.000000 0.000000
					CHANNELS 3 Zrotation Yrotation Xrotation
					JOINT RightArm
					{
						OFFSET -3.136600 1.374050 -0.404650
						CHANNELS 3 Zrotation Yrotation Xrotation
						JOINT RightForeArm
						{
							OFFSET -5.241900 -0.000000 -0.000000
							CHANNELS 3 Zrotation Yrotation Xrotation
							JOINT RightHand
							{
								OFFSET -3.444170 -0.000000 -0.000000
								CHANNELS 3 Zrotation Yrotation Xrotation
								JOINT RightFingerBase
								{
									OFFSET 0.000000 0.000000 0.000000
									CHANNELS 3 Zrotation Yrotation Xrotation
									JOINT RightHandIndex1
									{
										OFFSET -0.622530 -0.000000 -0.000000
										CHANNELS 3 Zrotation Yrotation Xrotation
										End Site
										{
											OFFSET 0.000000 0.000000 0.000000
										}
									}
								}
								JOINT RThumb
								{
									OFFSET 0.000000 0.000000 0.000000
									CHANNELS 3 Zrotation Yrotation Xrotation
									End Site
									{
										OFFSET 0.000000 0.000000 0.000000
									}
								}
							}
						}
					}
				}
			}
		}
	}
}
}
MOTION
Frames: 6
Frame Time: 0.008333
-1.144936 17.019582 0.638003 -7.560083 82.954216 -8.662257 -1.471777 1.372943 -1.718579 -0.724267 1.438829 -2.490950 -4.310160 1.407443 3.390215 8.181547 -12.741163 -10.515988 -0.967878 -0.035078 -0.753215 0.000000 0.000000 0.000000 -3.184519 31.106926 1.233052 -75.166861 26.471587 -13.454228 -4.806016 -15.433936 -0.026700 -5.804860 7.179768 -0.362031 -0.127068 -0.103233 -0.000000 0.000000 0.000000 0.000000 0.000000 0.000000 0.000000 7.084264 -6.850014 0.381305 35.466923 13.948671 -5.679957 1.375281 44.998225 0.008159 1.116595 6.948963 0.069307 0.021426 -0.235812 0.000000 0.000000 0.000000 0.000000 0.000000 0.000000 0.000000 
-0.985072 17.003035 0.623498 -5.172080 83.220458 -6.281988 -1.942651 1.252655 -1.686638 -0.818198 1.349719 -2.494144 -4.333876 1.317104 3.372983 8.265161 -12.740085 -10.561025 -0.988999 -0.035925 -0.765834 0.000000 0.000000 0.000000 -3.106586 30.953836 1.246116 -74.818248 25.870810 -13.539102 -4.808132 -15.249337 -0.026342 -5.644388 7.177588 -0.351423 -0.128771 -0.100525 -0.000000 0.000000 0.000000 0.000000 0.000000 0.000000 0.000000 7.219818 -6.857671 0.368309 36.168074 13.510527 -5.939674 1.418947 44.927104 0.008536 1.131800 6.987354 0.070527 0.023858 -0.234118 0.000000 0.000000 0.000000 0.000000 0.000000 0.000000 0.000000 
-0.828806 16.987738 0.608321 -2.771900 83.543965 -3.876945 -2.380624 1.120752 -1.640086 -0.903036 1.247121 -2.494420 -4.351926 1.213102 3.354034 8.311962 -12.734290 -10.597570 -1.011520 -0.036997 -0.776210 0.000000 0.000000 0.000000 -3.024114 30.744844 1.262913 -74.446236 25.151114 -13.700816 -4.805133 -14.987999 -0.025809 -5.378296 7.181553 -0.334311 -0.130945 -0.096986 -0.000000 0.000000 0.000000 0.000000 0.000000 0.000000 0.000000 7.312090 -6.871171 0.347898 36.968087 13.023396 -6.259215 1.463550 44.836309 0.008855 1.118752 7.019697 0.069746 0.026733 -0.232470 0.000000 0.000000 0.000000 0.000000 0.000000 0.000000 0.000000 
-0.675776 16.973826 0.591768 -0.432105 83.911877 -1.523589 -2.764355 0.983757 -1.579319 -0.975225 1.136148 -2.491602 -4.365298 1.100754 3.333995 8.322628 -12.731475 -10.625239 -1.035099 -0.038281 -0.784212 0.000000 0.000000 0.000000 -2.942168 30.488337 1.280819 -74.050036 24.321131 -13.927988 -4.796360 -14.666826 -0.025106 -5.013446 7.181644 -0.310696 -0.133448 -0.092635 -0.000000 0.000000 0.000000 0.000000 0.000000 0.000000 0.000000 7.364237 -6.896744 0.321322 37.847042 12.490078 -6.622630 1.508653 44.726795 0.009109 1.075924 7.047717 0.067165 0.030023 -0.230848 0.000000 0.000000 0.000000 0.000000 0.000000 0.000000 0.000000 
-0.525403 16.961469 0.573204 1.770504 84.308682 0.698275 -3.076261 0.848429 -1.507132 -1.032157 1.022359 -2.486200 -4.375395 0.985769 3.312993 8.299690 -12.735281 -10.643068 -1.059755 -0.039804 -0.789526 0.000000 0.000000 0.000000 -2.868234 30.193517 1.296899 -73.627905 23.395026 -14.203269 -4.781383 -14.311258 -0.024242 -4.563662 7.164692 -0.280978 -0.136103 -0.087543 -0.000000 0.000000 0.000000 0.000000 0.000000 0.000000 0.000000 7.381676 -6.935775 0.290227 38.783687 11.911141 -7.013656 1.554259 44.600481 0.009304 1.006849 7.072672 0.062686 0.033662 -0.229193 0.000000 0.000000 0.000000 0.000000 0.000000 0.000000 0.000000 
-0.377139 16.950812 0.552148 3.755329 84.718209 2.705977 -3.303942 0.721114 -1.428585 -1.072333 0.911190 -2.479497 -4.383876 0.873648 3.290165 8.246438 -12.742360 -10.648797 -1.085976 -0.041656 -0.791467 0.000000 0.000000 0.000000 -2.809961 29.867550 1.308505 -73.178297 22.393312 -14.503884 -4.760293 -13.953074 -0.023234 -4.050160 7.116268 -0.246357 -0.138725 -0.081837 -0.000000 0.000000 0.000000 0.000000 0.000000 0.000000 0.000000 7.370037 -6.981999 0.256328 39.759727 11.279348 -7.422076 1.600800 44.462548 0.009468 0.922392 7.094647 0.057305 0.037518 -0.227417 0.000000 0.000000 0.000000 0.000000 0.000000 0.000000 0.000000 
